<svg xmlns="http://www.w3.org/2000/svg" width="100" height="100" viewBox="0 0 100 100" role="img" aria-label="Idea Incubator">
  <defs>
    <linearGradient id="ii-field" x1="0" y1="0" x2="1" y2="1">
      <stop offset="0%" stop-color="#9adcf7"/>
      <stop offset="100%" stop-color="#74cdf2"/>
    </linearGradient>
    <linearGradient id="ii-bulb" x1="0.3" y1="0" x2="0.7" y2="1">
      <stop offset="0%" stop-color="#ffe27a"/>
      <stop offset="100%" stop-color="#f7c93f"/>
    </linearGradient>
  </defs>

  <rect x="0" y="0" width="100" height="100" rx="22" fill="url(#ii-field)"/>

  <path d="M20.4 16.7 H79.6 V29.2 H64.8 V64.8 H79.6 V75.5 H53.7 V54.6 H47.2 V75.5 H20.4 V64.8 H37 V29.2 H20.4 Z" fill="#000000"/>

  <circle cx="50" cy="45" r="15" fill="#ffd65c" opacity="0.18"/>

  <g stroke="#ffe27a" stroke-width="2.1" stroke-linecap="round">
    <line x1="50" y1="26.5" x2="50" y2="31.5"/>
    <line x1="36.5" y1="32" x2="40" y2="35.5"/>
    <line x1="63.5" y1="32" x2="60" y2="35.5"/>
    <line x1="31" y1="45" x2="36" y2="45"/>
    <line x1="69" y1="45" x2="64" y2="45"/>
  </g>

  <circle cx="50" cy="45" r="10.5" fill="url(#ii-bulb)" stroke="#000000" stroke-width="1.4"/>

  <path d="M46.4 44.2 q1.8 4 1.8 7.4 M50 43.6 q0 4.4 0 8 M53.6 44.2 q-1.8 4 -1.8 7.4" fill="none" stroke="#000000" stroke-width="1.25" stroke-linecap="round"/>

  <path d="M45.6 53.5 h8.8 l-1.5 6 h-5.8 Z" fill="url(#ii-bulb)" stroke="#000000" stroke-width="1.3" stroke-linejoin="round"/>
</svg>
